# MagicaVoxel @ Ephtracy

# group
g Plant

# material
mtllib Plant.mtl
usemtl palette

# normals
vn -1 0 0
vn 1 0 0
vn 0 0 1
vn 0 0 -1
vn 0 -1 0
vn 0 1 0

# texcoords
vt 0.0839844 0.5
vt 0.130859 0.5
vt 0.134766 0.5
vt 0.138672 0.5

# verts
v -4 5 -0
v -4 5 -1
v -4 6 -0
v -4 6 -1
v -3 2 -0
v -3 2 -1
v -3 5 -0
v -3 5 -1
v -2 1 1
v -2 1 -1
v -2 1 -2
v -2 1 -3
v -2 2 2
v -2 2 1
v -2 2 -0
v -2 2 -1
v -2 2 -2
v -2 2 -3
v -2 3 -1
v -2 3 -2
v -2 4 -2
v -2 4 -3
v -2 4 -4
v -2 5 2
v -2 5 1
v -2 5 -1
v -2 5 -2
v -2 5 -3
v -2 5 -4
v -1 0 1
v -1 0 -1
v -1 0 -2
v -1 1 1
v -1 1 -1
v -1 1 -2
v -1 2 1
v -1 2 -0
v -1 2 -1
v -1 2 -2
v -1 3 1
v -1 3 -0
v 0 0 2
v 0 0 1
v 0 1 2
v 0 1 1
v 0 1 -0
v 0 2 2
v 0 2 1
v 0 2 -0
v 0 2 -2
v 0 2 -3
v 0 3 3
v 0 3 2
v 0 3 1
v 0 3 -0
v 0 3 -1
v 0 3 -2
v 0 3 -3
v 0 3 -4
v 0 4 -0
v 0 4 -1
v 0 6 4
v 0 6 3
v 0 6 2
v 0 6 -3
v 0 6 -4
v 0 7 4
v 0 7 3
v 1 2 -1
v 1 2 -2
v 1 3 -2
v 1 4 -0
v 1 4 -1
v 1 4 -2
v 1 5 -0
v 1 5 -1
v 1 5 -2
v 1 6 -1
v 1 6 -2
v 1 6 -3
v 1 7 -2
v 1 7 -3
v 2 2 -0
v 2 2 -1
v 2 4 -0
v 2 4 -1
v 3 4 -0
v 3 4 -1
v 3 5 1
v 3 5 -0
v 3 5 -1
v 3 5 -2
v 3 6 1
v 3 6 -0
v 3 6 -1
v 3 6 -2
v -3 5 -0
v -3 5 -1
v -3 6 -0
v -3 6 -1
v -2 3 -0
v -2 3 -1
v -2 5 -0
v -2 5 -1
v -1 1 1
v -1 1 -0
v -1 1 -2
v -1 1 -3
v -1 2 2
v -1 2 1
v -1 2 -0
v -1 2 -2
v -1 2 -3
v -1 3 1
v -1 3 -1
v -1 3 -2
v -1 4 -2
v -1 4 -3
v -1 4 -4
v -1 5 2
v -1 5 1
v -1 5 -1
v -1 5 -2
v -1 5 -3
v -1 5 -4
v 0 2 1
v 0 2 -0
v 0 3 1
v 0 3 -0
v 1 0 2
v 1 0 1
v 1 0 -0
v 1 0 -2
v 1 1 2
v 1 1 1
v 1 1 -0
v 1 1 -1
v 1 1 -2
v 1 2 2
v 1 2 1
v 1 2 -0
v 1 2 -1
v 1 2 -2
v 1 2 -3
v 1 3 3
v 1 3 2
v 1 3 1
v 1 3 -2
v 1 3 -3
v 1 3 -4
v 1 4 -0
v 1 4 -1
v 1 6 4
v 1 6 3
v 1 6 2
v 1 6 -3
v 1 6 -4
v 1 7 4
v 1 7 3
v 2 0 1
v 2 0 -0
v 2 1 1
v 2 1 -0
v 2 1 -1
v 2 2 -0
v 2 2 -1
v 2 2 -2
v 2 4 -0
v 2 4 -1
v 2 4 -2
v 2 5 -0
v 2 5 -1
v 2 5 -2
v 2 6 -1
v 2 6 -2
v 2 6 -3
v 2 7 -2
v 2 7 -3
v 3 2 -0
v 3 2 -1
v 3 4 -0
v 3 4 -1
v 4 4 -0
v 4 4 -1
v 4 5 1
v 4 5 -0
v 4 5 -1
v 4 5 -2
v 4 6 1
v 4 6 -0
v 4 6 -1
v 4 6 -2
v 0 6 4
v 0 7 4
v 1 6 4
v 1 7 4
v 0 3 3
v 0 6 3
v 1 3 3
v 1 6 3
v -2 2 2
v -2 5 2
v -1 2 2
v -1 5 2
v 0 0 2
v 0 1 2
v 0 2 2
v 0 3 2
v 1 0 2
v 1 1 2
v 1 2 2
v 1 3 2
v -2 1 1
v -2 2 1
v -1 0 1
v -1 1 1
v -1 2 1
v -1 3 1
v 0 0 1
v 0 1 1
v 0 2 1
v 0 3 1
v 1 0 1
v 1 1 1
v 1 2 1
v 2 0 1
v 2 1 1
v 3 5 1
v 3 6 1
v 4 5 1
v 4 6 1
v -4 5 -0
v -4 6 -0
v -3 2 -0
v -3 5 -0
v -3 6 -0
v -2 2 -0
v -2 3 -0
v -2 5 -0
v -1 1 -0
v -1 2 -0
v -1 3 -0
v 0 1 -0
v 0 2 -0
v 0 3 -0
v 0 4 -0
v 1 1 -0
v 1 2 -0
v 1 4 -0
v 1 5 -0
v 2 1 -0
v 2 2 -0
v 2 4 -0
v 2 5 -0
v 3 2 -0
v 3 4 -0
v 3 5 -0
v 4 4 -0
v 4 5 -0
v -2 3 -1
v -2 5 -1
v -1 3 -1
v -1 5 -1
v 1 2 -1
v 1 4 -1
v 1 5 -1
v 1 6 -1
v 2 2 -1
v 2 4 -1
v 2 5 -1
v 2 6 -1
v 3 5 -1
v 3 6 -1
v 4 5 -1
v 4 6 -1
v -2 1 -2
v -2 2 -2
v -2 3 -2
v -1 1 -2
v -1 2 -2
v -1 3 -2
v 0 2 -2
v 0 3 -2
v 1 2 -2
v 1 3 -2
v 1 6 -2
v 1 7 -2
v 2 6 -2
v 2 7 -2
v -2 4 -3
v -2 5 -3
v -1 4 -3
v -1 5 -3
v 0 3 -3
v 0 6 -3
v 1 3 -3
v 1 6 -3
v 0 6 3
v 0 7 3
v 1 6 3
v 1 7 3
v 0 3 2
v 0 6 2
v 1 3 2
v 1 6 2
v -2 2 1
v -2 5 1
v -1 2 1
v -1 3 1
v -1 5 1
v 0 2 1
v 0 3 1
v 1 2 1
v 1 3 1
v 1 0 -0
v 1 1 -0
v 2 0 -0
v 2 1 -0
v 3 5 -0
v 3 6 -0
v 4 5 -0
v 4 6 -0
v -4 5 -1
v -4 6 -1
v -3 2 -1
v -3 5 -1
v -3 6 -1
v -2 1 -1
v -2 2 -1
v -2 3 -1
v -2 5 -1
v -1 1 -1
v -1 2 -1
v -1 3 -1
v 0 3 -1
v 0 4 -1
v 1 1 -1
v 1 2 -1
v 1 4 -1
v 2 1 -1
v 2 2 -1
v 2 4 -1
v 3 2 -1
v 3 4 -1
v 3 5 -1
v 4 4 -1
v 4 5 -1
v -2 4 -2
v -2 5 -2
v -1 0 -2
v -1 1 -2
v -1 2 -2
v -1 4 -2
v -1 5 -2
v 0 0 -2
v 0 1 -2
v 0 2 -2
v 1 0 -2
v 1 1 -2
v 1 2 -2
v 1 3 -2
v 1 4 -2
v 1 5 -2
v 1 6 -2
v 2 2 -2
v 2 4 -2
v 2 5 -2
v 2 6 -2
v 3 5 -2
v 3 6 -2
v 4 5 -2
v 4 6 -2
v -2 1 -3
v -2 2 -3
v -2 4 -3
v -1 1 -3
v -1 2 -3
v -1 4 -3
v 0 2 -3
v 0 3 -3
v 1 2 -3
v 1 3 -3
v 1 6 -3
v 1 7 -3
v 2 6 -3
v 2 7 -3
v -2 4 -4
v -2 5 -4
v -1 4 -4
v -1 5 -4
v 0 3 -4
v 0 6 -4
v 1 3 -4
v 1 6 -4
v 0 0 2
v 1 0 2
v -1 0 1
v 0 0 1
v 1 0 1
v 2 0 1
v 1 0 -0
v 2 0 -0
v -1 0 -1
v 0 0 -1
v -1 0 -2
v 0 0 -2
v 1 0 -2
v -2 1 1
v -1 1 1
v 1 1 -0
v 2 1 -0
v -2 1 -1
v -1 1 -1
v 1 1 -1
v 2 1 -1
v -2 1 -2
v -1 1 -2
v -2 1 -3
v -1 1 -3
v -2 2 2
v -1 2 2
v 0 2 2
v 1 2 2
v -2 2 1
v -1 2 1
v 0 2 1
v 1 2 1
v -3 2 -0
v -2 2 -0
v -1 2 -0
v 0 2 -0
v 2 2 -0
v 3 2 -0
v -3 2 -1
v -2 2 -1
v 1 2 -1
v 2 2 -1
v 3 2 -1
v 0 2 -2
v 1 2 -2
v 2 2 -2
v 0 2 -3
v 1 2 -3
v 0 3 3
v 1 3 3
v 0 3 2
v 1 3 2
v -2 3 -1
v -1 3 -1
v -2 3 -2
v -1 3 -2
v 0 3 -3
v 1 3 -3
v 0 3 -4
v 1 3 -4
v 1 4 -0
v 2 4 -0
v 3 4 -0
v 4 4 -0
v 1 4 -1
v 2 4 -1
v 3 4 -1
v 4 4 -1
v -2 4 -3
v -1 4 -3
v -2 4 -4
v -1 4 -4
v 3 5 1
v 4 5 1
v -4 5 -0
v -3 5 -0
v 3 5 -0
v 4 5 -0
v -4 5 -1
v -3 5 -1
v 3 5 -1
v 4 5 -1
v 3 5 -2
v 4 5 -2
v 0 6 4
v 1 6 4
v 0 6 3
v 1 6 3
v 1 6 -2
v 2 6 -2
v 1 6 -3
v 2 6 -3
v 0 1 2
v 1 1 2
v -1 1 1
v 0 1 1
v 1 1 1
v 2 1 1
v -1 1 -0
v 0 1 -0
v 1 1 -0
v 2 1 -0
v -2 2 1
v -1 2 1
v 0 2 1
v 1 2 1
v -2 2 -0
v -1 2 -0
v 0 2 -0
v 1 2 -0
v 2 2 -0
v -1 2 -1
v 1 2 -1
v 2 2 -1
v -1 2 -2
v 0 2 -2
v 1 2 -2
v 0 3 2
v 1 3 2
v -1 3 1
v 0 3 1
v 1 3 1
v -2 3 -0
v -1 3 -0
v 0 3 -0
v -2 3 -1
v -1 3 -1
v 0 3 -1
v 0 3 -2
v 1 3 -2
v 0 3 -3
v 1 3 -3
v 0 4 -0
v 1 4 -0
v 2 4 -0
v 3 4 -0
v 0 4 -1
v 1 4 -1
v 2 4 -1
v 3 4 -1
v -2 4 -2
v -1 4 -2
v -2 4 -3
v -1 4 -3
v -2 5 2
v -1 5 2
v -2 5 1
v -1 5 1
v -3 5 -0
v -2 5 -0
v 1 5 -0
v 2 5 -0
v 3 5 -0
v 4 5 -0
v -3 5 -1
v -2 5 -1
v -1 5 -1
v 1 5 -1
v 2 5 -1
v 3 5 -1
v 4 5 -1
v -2 5 -2
v -1 5 -2
v -2 5 -3
v -1 5 -3
v -2 5 -4
v -1 5 -4
v 0 6 3
v 1 6 3
v 0 6 2
v 1 6 2
v 3 6 1
v 4 6 1
v -4 6 -0
v -3 6 -0
v 3 6 -0
v 4 6 -0
v -4 6 -1
v -3 6 -1
v 1 6 -1
v 2 6 -1
v 3 6 -1
v 4 6 -1
v 1 6 -2
v 2 6 -2
v 3 6 -2
v 4 6 -2
v 0 6 -3
v 1 6 -3
v 0 6 -4
v 1 6 -4
v 0 7 4
v 1 7 4
v 0 7 3
v 1 7 3
v 1 7 -2
v 2 7 -2
v 1 7 -3
v 2 7 -3

# faces
f 3/4/1 2/4/1 1/4/1
f 4/4/1 2/4/1 3/4/1
f 7/2/1 6/2/1 5/2/1
f 8/2/1 6/2/1 7/2/1
f 14/3/1 10/3/1 9/3/1
f 15/3/1 10/3/1 14/3/1
f 16/3/1 10/3/1 15/3/1
f 17/3/1 12/3/1 11/3/1
f 18/3/1 12/3/1 17/3/1
f 20/2/1 18/2/1 17/2/1
f 21/2/1 18/2/1 20/2/1
f 21/2/1 20/2/1 19/2/1
f 22/2/1 18/2/1 21/2/1
f 24/2/1 14/2/1 13/2/1
f 25/2/1 14/2/1 24/2/1
f 26/2/1 21/2/1 19/2/1
f 27/2/1 21/2/1 26/2/1
f 28/2/1 23/2/1 22/2/1
f 29/2/1 23/2/1 28/2/1
f 33/1/1 31/1/1 30/1/1
f 34/3/1 32/3/1 31/3/1
f 34/1/1 31/1/1 33/1/1
f 35/3/1 32/3/1 34/3/1
f 38/3/1 35/3/1 34/3/1
f 39/3/1 35/3/1 38/3/1
f 40/2/1 37/2/1 36/2/1
f 41/2/1 37/2/1 40/2/1
f 44/1/1 43/1/1 42/1/1
f 45/1/1 43/1/1 44/1/1
f 48/3/1 46/3/1 45/3/1
f 49/3/1 46/3/1 48/3/1
f 53/2/1 48/2/1 47/2/1
f 54/2/1 48/2/1 53/2/1
f 57/2/1 51/2/1 50/2/1
f 58/2/1 51/2/1 57/2/1
f 60/2/1 56/2/1 55/2/1
f 61/2/1 56/2/1 60/2/1
f 63/2/1 53/2/1 52/2/1
f 64/2/1 53/2/1 63/2/1
f 65/2/1 59/2/1 58/2/1
f 66/2/1 59/2/1 65/2/1
f 67/4/1 63/4/1 62/4/1
f 68/4/1 63/4/1 67/4/1
f 71/2/1 70/2/1 69/2/1
f 73/2/1 71/2/1 69/2/1
f 74/2/1 71/2/1 73/2/1
f 75/2/1 73/2/1 72/2/1
f 76/4/1 74/4/1 73/4/1
f 76/2/1 73/2/1 75/2/1
f 77/4/1 74/4/1 76/4/1
f 78/2/1 77/2/1 76/2/1
f 79/2/1 77/2/1 78/2/1
f 81/4/1 80/4/1 79/4/1
f 82/4/1 80/4/1 81/4/1
f 85/2/1 84/2/1 83/2/1
f 86/2/1 84/2/1 85/2/1
f 90/2/1 88/2/1 87/2/1
f 91/2/1 88/2/1 90/2/1
f 93/4/1 90/4/1 89/4/1
f 94/4/1 90/4/1 93/4/1
f 95/4/1 92/4/1 91/4/1
f 96/4/1 92/4/1 95/4/1
f 97/4/2 98/4/2 99/4/2
f 99/4/2 98/4/2 100/4/2
f 101/2/2 102/2/2 103/2/2
f 103/2/2 102/2/2 104/2/2
f 105/3/2 106/3/2 110/3/2
f 110/3/2 106/3/2 111/3/2
f 107/3/2 108/3/2 112/3/2
f 112/3/2 108/3/2 113/3/2
f 109/2/2 110/2/2 114/2/2
f 112/2/2 113/2/2 116/2/2
f 116/2/2 113/2/2 117/2/2
f 115/2/2 116/2/2 117/2/2
f 117/2/2 113/2/2 118/2/2
f 109/2/2 114/2/2 120/2/2
f 120/2/2 114/2/2 121/2/2
f 115/2/2 117/2/2 122/2/2
f 122/2/2 117/2/2 123/2/2
f 118/2/2 119/2/2 124/2/2
f 124/2/2 119/2/2 125/2/2
f 126/2/2 127/2/2 128/2/2
f 128/2/2 127/2/2 129/2/2
f 130/1/2 131/1/2 134/1/2
f 134/1/2 131/1/2 135/1/2
f 132/1/2 133/1/2 136/1/2
f 136/1/2 133/1/2 137/1/2
f 137/1/2 133/1/2 138/1/2
f 135/3/2 136/3/2 140/3/2
f 140/3/2 136/3/2 141/3/2
f 137/3/2 138/3/2 142/3/2
f 142/3/2 138/3/2 143/3/2
f 139/2/2 140/2/2 146/2/2
f 146/2/2 140/2/2 147/2/2
f 143/2/2 144/2/2 148/2/2
f 148/2/2 144/2/2 149/2/2
f 141/2/2 142/2/2 151/2/2
f 151/2/2 142/2/2 152/2/2
f 145/2/2 146/2/2 154/2/2
f 154/2/2 146/2/2 155/2/2
f 149/2/2 150/2/2 156/2/2
f 156/2/2 150/2/2 157/2/2
f 153/4/2 154/4/2 158/4/2
f 158/4/2 154/4/2 159/4/2
f 160/1/2 161/1/2 162/1/2
f 162/1/2 161/1/2 163/1/2
f 163/3/2 164/3/2 165/3/2
f 165/3/2 164/3/2 166/3/2
f 166/2/2 167/2/2 169/2/2
f 169/2/2 167/2/2 170/2/2
f 168/2/2 169/2/2 171/2/2
f 169/4/2 170/4/2 172/4/2
f 171/2/2 169/2/2 172/2/2
f 172/4/2 170/4/2 173/4/2
f 172/2/2 173/2/2 174/2/2
f 174/2/2 173/2/2 175/2/2
f 175/4/2 176/4/2 177/4/2
f 177/4/2 176/4/2 178/4/2
f 179/2/2 180/2/2 181/2/2
f 181/2/2 180/2/2 182/2/2
f 183/2/2 184/2/2 186/2/2
f 186/2/2 184/2/2 187/2/2
f 185/4/2 186/4/2 189/4/2
f 189/4/2 186/4/2 190/4/2
f 187/4/2 188/4/2 191/4/2
f 191/4/2 188/4/2 192/4/2
f 195/4/3 194/4/3 193/4/3
f 196/4/3 194/4/3 195/4/3
f 199/2/3 198/2/3 197/2/3
f 200/2/3 198/2/3 199/2/3
f 203/2/3 202/2/3 201/2/3
f 204/2/3 202/2/3 203/2/3
f 209/1/3 206/1/3 205/1/3
f 210/1/3 206/1/3 209/1/3
f 211/2/3 208/2/3 207/2/3
f 212/2/3 208/2/3 211/2/3
f 216/3/3 214/3/3 213/3/3
f 217/3/3 214/3/3 216/3/3
f 219/1/3 216/1/3 215/1/3
f 220/1/3 216/1/3 219/1/3
f 221/2/3 218/2/3 217/2/3
f 222/2/3 218/2/3 221/2/3
f 224/3/3 221/3/3 220/3/3
f 225/3/3 221/3/3 224/3/3
f 226/1/3 224/1/3 223/1/3
f 227/1/3 224/1/3 226/1/3
f 230/4/3 229/4/3 228/4/3
f 231/4/3 229/4/3 230/4/3
f 235/4/3 233/4/3 232/4/3
f 236/4/3 233/4/3 235/4/3
f 237/2/3 235/2/3 234/2/3
f 238/2/3 235/2/3 237/2/3
f 239/2/3 235/2/3 238/2/3
f 241/2/3 238/2/3 237/2/3
f 242/2/3 238/2/3 241/2/3
f 243/4/3 241/4/3 240/4/3
f 244/4/3 241/4/3 243/4/3
f 248/2/3 245/2/3 244/2/3
f 248/2/3 246/2/3 245/2/3
f 249/2/3 246/2/3 248/2/3
f 251/3/3 248/3/3 247/3/3
f 252/3/3 248/3/3 251/3/3
f 253/2/3 250/2/3 249/2/3
f 254/2/3 250/2/3 253/2/3
f 255/2/3 253/2/3 252/2/3
f 256/2/3 253/2/3 255/2/3
f 258/2/3 257/2/3 256/2/3
f 259/2/3 257/2/3 258/2/3
f 262/2/3 261/2/3 260/2/3
f 263/2/3 261/2/3 262/2/3
f 268/2/3 265/2/3 264/2/3
f 269/2/3 265/2/3 268/2/3
f 270/2/3 267/2/3 266/2/3
f 271/2/3 267/2/3 270/2/3
f 274/4/3 273/4/3 272/4/3
f 275/4/3 273/4/3 274/4/3
f 279/3/3 277/3/3 276/3/3
f 280/2/3 278/2/3 277/2/3
f 280/3/3 277/3/3 279/3/3
f 281/2/3 278/2/3 280/2/3
f 284/2/3 283/2/3 282/2/3
f 285/2/3 283/2/3 284/2/3
f 288/4/3 287/4/3 286/4/3
f 289/4/3 287/4/3 288/4/3
f 292/2/3 291/2/3 290/2/3
f 293/2/3 291/2/3 292/2/3
f 296/2/3 295/2/3 294/2/3
f 297/2/3 295/2/3 296/2/3
f 298/4/4 299/4/4 300/4/4
f 300/4/4 299/4/4 301/4/4
f 302/2/4 303/2/4 304/2/4
f 304/2/4 303/2/4 305/2/4
f 306/2/4 307/2/4 308/2/4
f 308/2/4 307/2/4 309/2/4
f 309/2/4 307/2/4 310/2/4
f 311/2/4 312/2/4 313/2/4
f 313/2/4 312/2/4 314/2/4
f 315/1/4 316/1/4 317/1/4
f 317/1/4 316/1/4 318/1/4
f 319/4/4 320/4/4 321/4/4
f 321/4/4 320/4/4 322/4/4
f 323/4/4 324/4/4 326/4/4
f 326/4/4 324/4/4 327/4/4
f 325/2/4 326/2/4 329/2/4
f 329/2/4 326/2/4 330/2/4
f 330/2/4 326/2/4 331/2/4
f 328/3/4 329/3/4 332/3/4
f 329/2/4 330/2/4 333/2/4
f 332/3/4 329/3/4 333/3/4
f 333/2/4 330/2/4 334/2/4
f 333/2/4 334/2/4 335/2/4
f 333/2/4 335/2/4 338/2/4
f 335/2/4 336/2/4 338/2/4
f 338/2/4 336/2/4 339/2/4
f 337/3/4 338/3/4 340/3/4
f 340/3/4 338/3/4 341/3/4
f 341/2/4 342/2/4 343/2/4
f 343/2/4 342/2/4 344/2/4
f 344/2/4 345/2/4 346/2/4
f 346/2/4 345/2/4 347/2/4
f 348/2/4 349/2/4 353/2/4
f 353/2/4 349/2/4 354/2/4
f 351/3/4 352/3/4 355/3/4
f 350/3/4 351/3/4 355/3/4
f 355/3/4 352/3/4 356/3/4
f 356/3/4 352/3/4 357/3/4
f 355/1/4 356/1/4 358/1/4
f 356/3/4 357/3/4 359/3/4
f 358/1/4 356/1/4 359/1/4
f 359/3/4 357/3/4 360/3/4
f 361/2/4 362/2/4 365/2/4
f 360/2/4 361/2/4 365/2/4
f 362/4/4 363/4/4 366/4/4
f 365/2/4 362/2/4 366/2/4
f 363/2/4 364/2/4 367/2/4
f 366/4/4 363/4/4 367/4/4
f 367/2/4 364/2/4 368/2/4
f 369/4/4 370/4/4 371/4/4
f 371/4/4 370/4/4 372/4/4
f 373/3/4 374/3/4 376/3/4
f 374/2/4 375/2/4 377/2/4
f 376/3/4 374/3/4 377/3/4
f 377/2/4 375/2/4 378/2/4
f 379/2/4 380/2/4 381/2/4
f 381/2/4 380/2/4 382/2/4
f 383/4/4 384/4/4 385/4/4
f 385/4/4 384/4/4 386/4/4
f 387/2/4 388/2/4 389/2/4
f 389/2/4 388/2/4 390/2/4
f 391/2/4 392/2/4 393/2/4
f 393/2/4 392/2/4 394/2/4
f 398/1/5 396/1/5 395/1/5
f 399/1/5 396/1/5 398/1/5
f 401/1/5 398/1/5 397/1/5
f 401/1/5 400/1/5 399/1/5
f 401/1/5 399/1/5 398/1/5
f 402/1/5 400/1/5 401/1/5
f 403/1/5 401/1/5 397/1/5
f 404/1/5 401/1/5 403/1/5
f 405/3/5 404/3/5 403/3/5
f 406/1/5 401/1/5 404/1/5
f 406/3/5 404/3/5 405/3/5
f 407/1/5 401/1/5 406/1/5
f 412/3/5 409/3/5 408/3/5
f 413/3/5 409/3/5 412/3/5
f 414/3/5 411/3/5 410/3/5
f 415/3/5 411/3/5 414/3/5
f 418/3/5 417/3/5 416/3/5
f 419/3/5 417/3/5 418/3/5
f 424/2/5 421/2/5 420/2/5
f 425/2/5 421/2/5 424/2/5
f 426/2/5 423/2/5 422/2/5
f 427/2/5 423/2/5 426/2/5
f 430/2/5 426/2/5 425/2/5
f 431/2/5 426/2/5 430/2/5
f 434/2/5 429/2/5 428/2/5
f 435/2/5 429/2/5 434/2/5
f 437/2/5 433/2/5 432/2/5
f 438/2/5 433/2/5 437/2/5
f 440/2/5 437/2/5 436/2/5
f 441/2/5 437/2/5 440/2/5
f 442/2/5 440/2/5 439/2/5
f 443/2/5 440/2/5 442/2/5
f 446/2/5 445/2/5 444/2/5
f 447/2/5 445/2/5 446/2/5
f 450/2/5 449/2/5 448/2/5
f 451/2/5 449/2/5 450/2/5
f 454/2/5 453/2/5 452/2/5
f 455/2/5 453/2/5 454/2/5
f 460/2/5 457/2/5 456/2/5
f 461/2/5 457/2/5 460/2/5
f 462/2/5 459/2/5 458/2/5
f 463/2/5 459/2/5 462/2/5
f 466/2/5 465/2/5 464/2/5
f 467/2/5 465/2/5 466/2/5
f 472/4/5 469/4/5 468/4/5
f 473/4/5 469/4/5 472/4/5
f 474/4/5 471/4/5 470/4/5
f 475/4/5 471/4/5 474/4/5
f 478/4/5 477/4/5 476/4/5
f 479/4/5 477/4/5 478/4/5
f 482/4/5 481/4/5 480/4/5
f 483/4/5 481/4/5 482/4/5
f 486/4/5 485/4/5 484/4/5
f 487/4/5 485/4/5 486/4/5
f 488/1/6 489/1/6 491/1/6
f 491/1/6 489/1/6 492/1/6
f 490/1/6 491/1/6 494/1/6
f 494/1/6 491/1/6 495/1/6
f 492/1/6 493/1/6 496/1/6
f 496/1/6 493/1/6 497/1/6
f 498/3/6 499/3/6 502/3/6
f 502/3/6 499/3/6 503/3/6
f 500/3/6 501/3/6 504/3/6
f 504/3/6 501/3/6 505/3/6
f 505/3/6 506/3/6 508/3/6
f 508/3/6 506/3/6 509/3/6
f 507/3/6 508/3/6 510/3/6
f 510/3/6 508/3/6 511/3/6
f 511/3/6 508/3/6 512/3/6
f 513/2/6 514/2/6 516/2/6
f 516/2/6 514/2/6 517/2/6
f 515/2/6 516/2/6 519/2/6
f 519/2/6 516/2/6 520/2/6
f 518/2/6 519/2/6 521/2/6
f 519/2/6 520/2/6 521/2/6
f 521/2/6 520/2/6 522/2/6
f 522/2/6 520/2/6 523/2/6
f 524/2/6 525/2/6 526/2/6
f 526/2/6 525/2/6 527/2/6
f 528/2/6 529/2/6 532/2/6
f 532/2/6 529/2/6 533/2/6
f 530/2/6 531/2/6 534/2/6
f 534/2/6 531/2/6 535/2/6
f 536/2/6 537/2/6 538/2/6
f 538/2/6 537/2/6 539/2/6
f 540/2/6 541/2/6 542/2/6
f 542/2/6 541/2/6 543/2/6
f 544/2/6 545/2/6 550/2/6
f 550/2/6 545/2/6 551/2/6
f 546/2/6 547/2/6 553/2/6
f 553/2/6 547/2/6 554/2/6
f 548/2/6 549/2/6 555/2/6
f 555/2/6 549/2/6 556/2/6
f 551/2/6 552/2/6 557/2/6
f 557/2/6 552/2/6 558/2/6
f 559/2/6 560/2/6 561/2/6
f 561/2/6 560/2/6 562/2/6
f 563/2/6 564/2/6 565/2/6
f 565/2/6 564/2/6 566/2/6
f 567/4/6 568/4/6 571/4/6
f 571/4/6 568/4/6 572/4/6
f 569/4/6 570/4/6 573/4/6
f 573/4/6 570/4/6 574/4/6
f 575/2/6 576/2/6 579/2/6
f 579/2/6 576/2/6 580/2/6
f 577/4/6 578/4/6 581/4/6
f 581/4/6 578/4/6 582/4/6
f 583/2/6 584/2/6 585/2/6
f 585/2/6 584/2/6 586/2/6
f 587/4/6 588/4/6 589/4/6
f 589/4/6 588/4/6 590/4/6
f 591/4/6 592/4/6 593/4/6
f 593/4/6 592/4/6 594/4/6
