# MagicaVoxel @ Ephtracy

# group
g Seguaro

# material
mtllib Seguaro.mtl
usemtl palette

# normals
vn -1 0 0
vn 1 0 0
vn 0 0 1
vn 0 0 -1
vn 0 -1 0
vn 0 1 0

# texcoords
vt 0.0175781 0.5
vt 0.138672 0.5
vt 0.142578 0.5
vt 0.146484 0.5

# verts
v -3 2 -0
v -3 2 -1
v -3 3 1
v -3 3 -0
v -3 3 -1
v -3 5 1
v -3 5 -1
v -3 6 1
v -3 6 -1
v -2 3 2
v -2 3 1
v -2 4 2
v -2 4 1
v -1 0 1
v -1 0 -1
v -1 1 1
v -1 1 -0
v -1 1 -1
v -1 2 -0
v -1 2 -1
v -1 3 1
v -1 3 -1
v -1 4 1
v -1 4 -1
v -1 5 -0
v -1 5 -1
v -1 6 -0
v -1 6 -1
v -1 7 1
v -1 7 -0
v -1 7 -1
v -1 8 -0
v -1 8 -1
v 0 3 -1
v 0 3 -2
v 0 4 -1
v 0 4 -2
v 0 7 1
v 0 7 -0
v 0 8 1
v 0 8 -0
v 2 5 1
v 2 5 -1
v 2 6 1
v 2 6 -0
v 2 6 -1
v 2 7 1
v 2 7 -0
v -2 2 -0
v -2 2 -1
v -2 3 -0
v -2 3 -1
v -2 4 1
v -2 4 -1
v -2 5 1
v -2 5 -1
v -2 6 1
v -2 6 -1
v -1 3 2
v -1 3 1
v -1 4 2
v -1 4 1
v 1 0 1
v 1 0 -1
v 1 1 1
v 1 1 -0
v 1 1 -1
v 1 2 1
v 1 2 -0
v 1 3 -1
v 1 3 -2
v 1 4 1
v 1 4 -1
v 1 4 -2
v 1 5 1
v 1 5 -0
v 1 5 -1
v 1 6 1
v 1 6 -0
v 1 7 1
v 1 7 -1
v 1 8 1
v 1 8 -1
v 3 4 1
v 3 4 -1
v 3 5 1
v 3 5 -0
v 3 6 1
v 3 6 -0
v 3 6 -1
v 3 7 1
v 3 7 -0
v 4 5 1
v 4 5 -0
v 4 6 1
v 4 6 -0
v -2 3 2
v -2 4 2
v -1 3 2
v -1 4 2
v -3 3 1
v -3 5 1
v -3 6 1
v -2 3 1
v -2 4 1
v -2 5 1
v -2 6 1
v -1 0 1
v -1 1 1
v -1 3 1
v -1 4 1
v -1 7 1
v 0 1 1
v 0 2 1
v 0 5 1
v 0 6 1
v 0 7 1
v 0 8 1
v 1 0 1
v 1 1 1
v 1 2 1
v 1 4 1
v 1 5 1
v 1 6 1
v 1 7 1
v 1 8 1
v 2 5 1
v 2 6 1
v 2 7 1
v 3 4 1
v 3 5 1
v 3 6 1
v 3 7 1
v 4 5 1
v 4 6 1
v -3 2 -0
v -3 3 -0
v -2 2 -0
v -2 3 -0
v -1 7 -0
v -1 8 -0
v 0 7 -0
v 0 8 -0
v 2 6 -0
v 2 7 -0
v 3 5 -0
v 3 6 -0
v 3 7 -0
v 4 5 -0
v 4 6 -0
v -3 2 -1
v -3 3 -1
v -3 5 -1
v -3 6 -1
v -2 2 -1
v -2 3 -1
v -2 4 -1
v -2 5 -1
v -2 6 -1
v -1 0 -1
v -1 1 -1
v -1 2 -1
v -1 3 -1
v -1 4 -1
v -1 5 -1
v -1 6 -1
v -1 7 -1
v -1 8 -1
v 0 1 -1
v 0 2 -1
v 0 3 -1
v 0 4 -1
v 0 5 -1
v 0 6 -1
v 0 7 -1
v 0 8 -1
v 1 0 -1
v 1 1 -1
v 1 3 -1
v 1 4 -1
v 1 5 -1
v 1 7 -1
v 1 8 -1
v 2 5 -1
v 2 6 -1
v 3 4 -1
v 3 6 -1
v 0 3 -2
v 0 4 -2
v 1 3 -2
v 1 4 -2
v -1 0 1
v 1 0 1
v -1 0 -1
v 1 0 -1
v -3 2 -0
v -2 2 -0
v -3 2 -1
v -2 2 -1
v -2 3 2
v -1 3 2
v -3 3 1
v -2 3 1
v -1 3 1
v -3 3 -0
v -2 3 -0
v -2 3 -1
v -1 3 -1
v 0 3 -1
v 1 3 -1
v 0 3 -2
v 1 3 -2
v 1 4 1
v 3 4 1
v 1 4 -1
v 3 4 -1
v 3 5 1
v 4 5 1
v 3 5 -0
v 4 5 -0
v -2 4 2
v -1 4 2
v -2 4 1
v -1 4 1
v -2 4 -1
v -1 4 -1
v 0 4 -1
v 1 4 -1
v 0 4 -2
v 1 4 -2
v 1 5 1
v 2 5 1
v 1 5 -0
v 1 5 -1
v 2 5 -1
v -3 6 1
v -2 6 1
v 3 6 1
v 4 6 1
v 2 6 -0
v 3 6 -0
v 4 6 -0
v -3 6 -1
v -2 6 -1
v 2 6 -1
v 3 6 -1
v -1 7 1
v 0 7 1
v 2 7 1
v 3 7 1
v -1 7 -0
v 0 7 -0
v 2 7 -0
v 3 7 -0
v 0 8 1
v 1 8 1
v -1 8 -0
v 0 8 -0
v -1 8 -1
v 0 8 -1
v 1 8 -1

# faces
f 4/1/1 2/1/1 1/1/1
f 5/1/1 2/1/1 4/1/1
f 6/3/1 4/3/1 3/3/1
f 6/3/1 5/3/1 4/3/1
f 7/3/1 5/3/1 6/3/1
f 8/2/1 7/2/1 6/2/1
f 9/2/1 7/2/1 8/2/1
f 12/1/1 11/1/1 10/1/1
f 13/1/1 11/1/1 12/1/1
f 16/4/1 15/4/1 14/4/1
f 17/4/1 15/4/1 16/4/1
f 18/4/1 15/4/1 17/4/1
f 19/3/1 17/3/1 16/3/1
f 19/1/1 18/1/1 17/1/1
f 20/1/1 18/1/1 19/1/1
f 21/3/1 19/3/1 16/3/1
f 21/3/1 20/3/1 19/3/1
f 22/3/1 20/3/1 21/3/1
f 25/3/1 24/3/1 23/3/1
f 26/3/1 24/3/1 25/3/1
f 27/3/1 25/3/1 23/3/1
f 27/1/1 26/1/1 25/1/1
f 28/1/1 26/1/1 27/1/1
f 29/3/1 27/3/1 23/3/1
f 29/3/1 28/3/1 27/3/1
f 30/3/1 28/3/1 29/3/1
f 31/3/1 28/3/1 30/3/1
f 32/1/1 31/1/1 30/1/1
f 33/1/1 31/1/1 32/1/1
f 36/1/1 35/1/1 34/1/1
f 37/1/1 35/1/1 36/1/1
f 40/2/1 39/2/1 38/2/1
f 41/2/1 39/2/1 40/2/1
f 44/3/1 43/3/1 42/3/1
f 45/3/1 43/3/1 44/3/1
f 46/3/1 43/3/1 45/3/1
f 47/2/1 45/2/1 44/2/1
f 48/2/1 45/2/1 47/2/1
f 49/1/2 50/1/2 51/1/2
f 51/1/2 50/1/2 52/1/2
f 53/3/2 54/3/2 55/3/2
f 55/3/2 54/3/2 56/3/2
f 55/2/2 56/2/2 57/2/2
f 57/2/2 56/2/2 58/2/2
f 59/1/2 60/1/2 61/1/2
f 61/1/2 60/1/2 62/1/2
f 63/4/2 64/4/2 65/4/2
f 65/4/2 64/4/2 66/4/2
f 66/4/2 64/4/2 67/4/2
f 65/1/2 66/1/2 68/1/2
f 66/3/2 67/3/2 69/3/2
f 68/1/2 66/1/2 69/1/2
f 68/3/2 69/3/2 70/3/2
f 69/3/2 67/3/2 70/3/2
f 68/3/2 70/3/2 72/3/2
f 70/1/2 71/1/2 73/1/2
f 72/3/2 70/3/2 73/3/2
f 73/1/2 71/1/2 74/1/2
f 75/1/2 76/1/2 78/1/2
f 76/3/2 77/3/2 79/3/2
f 78/1/2 76/1/2 79/1/2
f 78/3/2 79/3/2 80/3/2
f 79/3/2 77/3/2 81/3/2
f 80/3/2 79/3/2 81/3/2
f 80/2/2 81/2/2 82/2/2
f 82/2/2 81/2/2 83/2/2
f 84/3/2 85/3/2 86/3/2
f 86/3/2 85/3/2 87/3/2
f 87/3/2 85/3/2 89/3/2
f 89/3/2 85/3/2 90/3/2
f 88/2/2 89/2/2 91/2/2
f 91/2/2 89/2/2 92/2/2
f 93/1/2 94/1/2 95/1/2
f 95/1/2 94/1/2 96/1/2
f 99/1/3 98/1/3 97/1/3
f 100/1/3 98/1/3 99/1/3
f 104/3/3 102/3/3 101/3/3
f 105/3/3 102/3/3 104/3/3
f 106/2/3 103/2/3 102/2/3
f 106/3/3 102/3/3 105/3/3
f 107/2/3 103/2/3 106/2/3
f 113/3/3 111/3/3 110/3/3
f 113/3/3 112/3/3 111/3/3
f 113/3/3 110/3/3 109/3/3
f 113/4/3 109/4/3 108/4/3
f 114/3/3 112/3/3 113/3/3
f 115/3/3 112/3/3 114/3/3
f 116/3/3 112/3/3 115/3/3
f 117/3/3 112/3/3 116/3/3
f 119/4/3 113/4/3 108/4/3
f 120/1/3 114/1/3 113/1/3
f 120/4/3 113/4/3 119/4/3
f 121/3/3 115/3/3 114/3/3
f 121/1/3 114/1/3 120/1/3
f 122/3/3 115/3/3 121/3/3
f 123/1/3 116/1/3 115/1/3
f 123/3/3 115/3/3 122/3/3
f 124/3/3 117/3/3 116/3/3
f 124/1/3 116/1/3 123/1/3
f 125/2/3 118/2/3 117/2/3
f 125/3/3 117/3/3 124/3/3
f 126/2/3 118/2/3 125/2/3
f 127/3/3 123/3/3 122/3/3
f 130/3/3 127/3/3 122/3/3
f 130/3/3 128/3/3 127/3/3
f 131/3/3 128/3/3 130/3/3
f 132/2/3 129/2/3 128/2/3
f 132/3/3 128/3/3 131/3/3
f 133/2/3 129/2/3 132/2/3
f 134/1/3 132/1/3 131/1/3
f 135/1/3 132/1/3 134/1/3
f 138/1/3 137/1/3 136/1/3
f 139/1/3 137/1/3 138/1/3
f 142/1/3 141/1/3 140/1/3
f 143/1/3 141/1/3 142/1/3
f 144/2/4 145/2/4 147/2/4
f 147/2/4 145/2/4 148/2/4
f 146/1/4 147/1/4 149/1/4
f 149/1/4 147/1/4 150/1/4
f 151/1/4 152/1/4 155/1/4
f 152/3/4 153/3/4 156/3/4
f 155/1/4 152/1/4 156/1/4
f 156/3/4 153/3/4 157/3/4
f 153/2/4 154/2/4 158/2/4
f 157/3/4 153/3/4 158/3/4
f 158/2/4 154/2/4 159/2/4
f 156/3/4 157/3/4 163/3/4
f 163/3/4 157/3/4 164/3/4
f 161/1/4 162/1/4 169/1/4
f 160/4/4 161/4/4 169/4/4
f 162/3/4 163/3/4 170/3/4
f 169/1/4 162/1/4 170/1/4
f 163/3/4 164/3/4 170/3/4
f 164/3/4 165/3/4 170/3/4
f 170/3/4 165/3/4 171/3/4
f 171/3/4 165/3/4 172/3/4
f 165/1/4 166/1/4 173/1/4
f 172/3/4 165/3/4 173/3/4
f 166/3/4 167/3/4 174/3/4
f 173/1/4 166/1/4 174/1/4
f 167/1/4 168/1/4 175/1/4
f 174/3/4 167/3/4 175/3/4
f 175/1/4 168/1/4 176/1/4
f 160/4/4 169/4/4 177/4/4
f 169/3/4 170/3/4 178/3/4
f 177/4/4 169/4/4 178/4/4
f 170/3/4 171/3/4 178/3/4
f 178/3/4 171/3/4 179/3/4
f 173/3/4 174/3/4 180/3/4
f 172/3/4 173/3/4 180/3/4
f 174/3/4 175/3/4 180/3/4
f 180/3/4 175/3/4 181/3/4
f 175/2/4 176/2/4 182/2/4
f 181/3/4 175/3/4 182/3/4
f 182/2/4 176/2/4 183/2/4
f 180/3/4 181/3/4 184/3/4
f 180/3/4 184/3/4 186/3/4
f 184/3/4 185/3/4 186/3/4
f 186/3/4 185/3/4 187/3/4
f 188/1/4 189/1/4 190/1/4
f 190/1/4 189/1/4 191/1/4
f 194/4/5 193/4/5 192/4/5
f 195/4/5 193/4/5 194/4/5
f 198/1/5 197/1/5 196/1/5
f 199/1/5 197/1/5 198/1/5
f 203/1/5 201/1/5 200/1/5
f 204/1/5 201/1/5 203/1/5
f 205/3/5 203/3/5 202/3/5
f 205/3/5 204/3/5 203/3/5
f 206/3/5 204/3/5 205/3/5
f 207/3/5 204/3/5 206/3/5
f 208/3/5 204/3/5 207/3/5
f 211/1/5 210/1/5 209/1/5
f 212/1/5 210/1/5 211/1/5
f 215/3/5 214/3/5 213/3/5
f 216/3/5 214/3/5 215/3/5
f 219/1/5 218/1/5 217/1/5
f 220/1/5 218/1/5 219/1/5
f 221/1/6 222/1/6 223/1/6
f 223/1/6 222/1/6 224/1/6
f 223/3/6 224/3/6 225/3/6
f 225/3/6 224/3/6 226/3/6
f 227/1/6 228/1/6 229/1/6
f 229/1/6 228/1/6 230/1/6
f 231/3/6 232/3/6 233/3/6
f 233/3/6 232/3/6 234/3/6
f 234/3/6 232/3/6 235/3/6
f 238/1/6 239/1/6 241/1/6
f 241/1/6 239/1/6 242/1/6
f 236/2/6 237/2/6 243/2/6
f 243/2/6 237/2/6 244/2/6
f 240/3/6 241/3/6 245/3/6
f 245/3/6 241/3/6 246/3/6
f 247/3/6 248/3/6 251/3/6
f 251/3/6 248/3/6 252/3/6
f 249/2/6 250/2/6 253/2/6
f 253/2/6 250/2/6 254/2/6
f 255/2/6 256/2/6 258/2/6
f 257/1/6 258/1/6 259/1/6
f 258/2/6 256/2/6 260/2/6
f 259/1/6 258/1/6 260/1/6
f 260/2/6 256/2/6 261/2/6
