# MagicaVoxel @ Ephtracy

# group
g Player

# material
mtllib Player.mtl
usemtl palette

# normals
vn -1 0 0
vn 1 0 0
vn 0 0 1
vn 0 0 -1
vn 0 -1 0
vn 0 1 0

# texcoords
vt 0.0253906 0.5
vt 0.0722656 0.5
vt 0.0761719 0.5
vt 0.0800781 0.5
vt 0.0878906 0.5

# verts
v -3 3 3
v -3 3 2
v -3 3 -1
v -3 4 2
v -3 4 -1
v -3 7 3
v -3 7 2
v -2 0 1
v -2 0 -1
v -2 1 1
v -2 1 -0
v -2 2 1
v -2 2 -0
v -2 2 -1
v -2 2 -2
v -2 3 1
v -2 3 -1
v -2 4 1
v -2 4 -1
v -2 5 1
v -2 5 -2
v -2 6 -1
v -2 6 -2
v -2 7 1
v -2 7 -1
v -2 8 1
v -2 8 -2
v 0 0 1
v 0 0 -1
v 0 1 1
v 0 1 -0
v 0 2 -0
v 0 2 -1
v 1 3 2
v 1 3 1
v 1 4 2
v 1 4 1
v -2 3 3
v -2 3 2
v -2 3 1
v -2 4 2
v -2 4 1
v -2 7 3
v -2 7 2
v -1 0 1
v -1 0 -1
v -1 1 1
v -1 1 -0
v -1 2 -0
v -1 2 -1
v 1 0 1
v 1 0 -1
v 1 1 1
v 1 1 -0
v 1 2 1
v 1 2 -0
v 1 2 -1
v 1 2 -2
v 1 3 1
v 1 3 -1
v 1 4 1
v 1 4 -1
v 1 5 1
v 1 5 -2
v 1 6 -1
v 1 6 -2
v 1 7 1
v 1 7 -1
v 1 8 1
v 1 8 -2
v 2 3 2
v 2 3 -1
v 2 4 2
v 2 4 -1
v -3 3 3
v -3 7 3
v -2 3 3
v -2 7 3
v 1 3 2
v 1 4 2
v 2 3 2
v 2 4 2
v -2 0 1
v -2 1 1
v -2 2 1
v -2 3 1
v -2 4 1
v -2 5 1
v -2 7 1
v -2 8 1
v -1 0 1
v -1 1 1
v 0 0 1
v 0 1 1
v 1 0 1
v 1 1 1
v 1 2 1
v 1 3 1
v 1 4 1
v 1 5 1
v 1 7 1
v 1 8 1
v -2 1 -0
v -2 2 -0
v -1 1 -0
v -1 2 -0
v 0 1 -0
v 0 2 -0
v 1 1 -0
v 1 2 -0
v -3 4 2
v -3 7 2
v -2 4 2
v -2 7 2
v -3 3 -1
v -3 4 -1
v -2 0 -1
v -2 2 -1
v -2 3 -1
v -2 4 -1
v -1 0 -1
v -1 2 -1
v 0 0 -1
v 0 2 -1
v 1 0 -1
v 1 2 -1
v 1 3 -1
v 1 4 -1
v 2 3 -1
v 2 4 -1
v -2 2 -2
v -2 5 -2
v -2 6 -2
v -2 8 -2
v 1 2 -2
v 1 5 -2
v 1 6 -2
v 1 8 -2
v -2 0 1
v -1 0 1
v 0 0 1
v 1 0 1
v -2 0 -1
v -1 0 -1
v 0 0 -1
v 1 0 -1
v -2 2 1
v 1 2 1
v -2 2 -0
v -1 2 -0
v 0 2 -0
v 1 2 -0
v -2 2 -1
v -1 2 -1
v 0 2 -1
v 1 2 -1
v -2 2 -2
v 1 2 -2
v -3 3 3
v -2 3 3
v -3 3 2
v -2 3 2
v 1 3 2
v 2 3 2
v -2 3 1
v 1 3 1
v -3 3 -1
v -2 3 -1
v 1 3 -1
v 2 3 -1
v -2 1 1
v -1 1 1
v 0 1 1
v 1 1 1
v -2 1 -0
v -1 1 -0
v 0 1 -0
v 1 1 -0
v -3 4 2
v -2 4 2
v 1 4 2
v 2 4 2
v -2 4 1
v 1 4 1
v -3 4 -1
v -2 4 -1
v 1 4 -1
v 2 4 -1
v -3 7 3
v -2 7 3
v -3 7 2
v -2 7 2
v -2 8 1
v 1 8 1
v -2 8 -2
v 1 8 -2

# faces
f 4/1/1 2/1/1 1/1/1
f 4/4/1 3/4/1 2/4/1
f 5/4/1 3/4/1 4/4/1
f 6/1/1 4/1/1 1/1/1
f 7/1/1 4/1/1 6/1/1
f 10/2/1 9/2/1 8/2/1
f 11/2/1 9/2/1 10/2/1
f 13/2/1 9/2/1 11/2/1
f 14/2/1 9/2/1 13/2/1
f 16/3/1 13/3/1 12/3/1
f 16/3/1 15/3/1 14/3/1
f 16/3/1 14/3/1 13/3/1
f 17/3/1 15/3/1 16/3/1
f 19/3/1 15/3/1 17/3/1
f 20/3/1 19/3/1 18/3/1
f 21/3/1 15/3/1 19/3/1
f 21/3/1 19/3/1 20/3/1
f 22/5/1 21/5/1 20/5/1
f 23/5/1 21/5/1 22/5/1
f 24/5/1 22/5/1 20/5/1
f 25/3/1 23/3/1 22/3/1
f 25/5/1 22/5/1 24/5/1
f 26/3/1 25/3/1 24/3/1
f 27/3/1 23/3/1 25/3/1
f 27/3/1 25/3/1 26/3/1
f 30/2/1 29/2/1 28/2/1
f 31/2/1 29/2/1 30/2/1
f 32/2/1 29/2/1 31/2/1
f 33/2/1 29/2/1 32/2/1
f 36/4/1 35/4/1 34/4/1
f 37/4/1 35/4/1 36/4/1
f 38/1/2 39/1/2 41/1/2
f 39/4/2 40/4/2 41/4/2
f 41/4/2 40/4/2 42/4/2
f 38/1/2 41/1/2 43/1/2
f 43/1/2 41/1/2 44/1/2
f 45/2/2 46/2/2 47/2/2
f 47/2/2 46/2/2 48/2/2
f 48/2/2 46/2/2 49/2/2
f 49/2/2 46/2/2 50/2/2
f 51/2/2 52/2/2 53/2/2
f 53/2/2 52/2/2 54/2/2
f 54/2/2 52/2/2 56/2/2
f 56/2/2 52/2/2 57/2/2
f 55/3/2 56/3/2 59/3/2
f 57/3/2 58/3/2 59/3/2
f 56/3/2 57/3/2 59/3/2
f 59/3/2 58/3/2 60/3/2
f 60/3/2 58/3/2 62/3/2
f 61/3/2 62/3/2 63/3/2
f 62/3/2 58/3/2 64/3/2
f 63/3/2 62/3/2 64/3/2
f 63/5/2 64/5/2 65/5/2
f 65/5/2 64/5/2 66/5/2
f 63/5/2 65/5/2 67/5/2
f 65/3/2 66/3/2 68/3/2
f 67/5/2 65/5/2 68/5/2
f 67/3/2 68/3/2 69/3/2
f 68/3/2 66/3/2 70/3/2
f 69/3/2 68/3/2 70/3/2
f 71/4/2 72/4/2 73/4/2
f 73/4/2 72/4/2 74/4/2
f 77/1/3 76/1/3 75/1/3
f 78/1/3 76/1/3 77/1/3
f 81/4/3 80/4/3 79/4/3
f 82/4/3 80/4/3 81/4/3
f 91/2/3 84/2/3 83/2/3
f 92/2/3 84/2/3 91/2/3
f 95/2/3 94/2/3 93/2/3
f 96/2/3 94/2/3 95/2/3
f 97/3/3 86/3/3 85/3/3
f 97/3/3 87/3/3 86/3/3
f 97/3/3 88/3/3 87/3/3
f 98/3/3 88/3/3 97/3/3
f 99/3/3 88/3/3 98/3/3
f 100/5/3 89/5/3 88/5/3
f 100/3/3 88/3/3 99/3/3
f 101/3/3 90/3/3 89/3/3
f 101/5/3 89/5/3 100/5/3
f 102/3/3 90/3/3 101/3/3
f 105/2/3 104/2/3 103/2/3
f 106/2/3 104/2/3 105/2/3
f 109/2/3 108/2/3 107/2/3
f 110/2/3 108/2/3 109/2/3
f 111/1/4 112/1/4 113/1/4
f 113/1/4 112/1/4 114/1/4
f 115/4/4 116/4/4 119/4/4
f 119/4/4 116/4/4 120/4/4
f 117/2/4 118/2/4 121/2/4
f 121/2/4 118/2/4 122/2/4
f 123/2/4 124/2/4 125/2/4
f 125/2/4 124/2/4 126/2/4
f 127/4/4 128/4/4 129/4/4
f 129/4/4 128/4/4 130/4/4
f 131/3/4 132/3/4 135/3/4
f 132/5/4 133/5/4 136/5/4
f 135/3/4 132/3/4 136/3/4
f 133/3/4 134/3/4 137/3/4
f 136/5/4 133/5/4 137/5/4
f 137/3/4 134/3/4 138/3/4
f 143/2/5 140/2/5 139/2/5
f 144/2/5 140/2/5 143/2/5
f 145/2/5 142/2/5 141/2/5
f 146/2/5 142/2/5 145/2/5
f 149/3/5 148/3/5 147/3/5
f 150/3/5 148/3/5 149/3/5
f 151/3/5 148/3/5 150/3/5
f 152/3/5 148/3/5 151/3/5
f 154/3/5 151/3/5 150/3/5
f 155/3/5 151/3/5 154/3/5
f 157/3/5 154/3/5 153/3/5
f 157/3/5 156/3/5 155/3/5
f 157/3/5 155/3/5 154/3/5
f 158/3/5 156/3/5 157/3/5
f 161/1/5 160/1/5 159/1/5
f 162/1/5 160/1/5 161/1/5
f 165/4/5 162/4/5 161/4/5
f 166/4/5 164/4/5 163/4/5
f 167/4/5 165/4/5 161/4/5
f 168/4/5 165/4/5 167/4/5
f 169/4/5 164/4/5 166/4/5
f 170/4/5 164/4/5 169/4/5
f 171/2/6 172/2/6 175/2/6
f 175/2/6 172/2/6 176/2/6
f 173/2/6 174/2/6 177/2/6
f 177/2/6 174/2/6 178/2/6
f 179/4/6 180/4/6 183/4/6
f 181/4/6 182/4/6 184/4/6
f 179/4/6 183/4/6 185/4/6
f 185/4/6 183/4/6 186/4/6
f 184/4/6 182/4/6 187/4/6
f 187/4/6 182/4/6 188/4/6
f 189/1/6 190/1/6 191/1/6
f 191/1/6 190/1/6 192/1/6
f 193/3/6 194/3/6 195/3/6
f 195/3/6 194/3/6 196/3/6
