# MagicaVoxel @ Ephtracy

# group
g Cactus

# material
mtllib Cactus.mtl
usemtl palette

# normals
vn -1 0 0
vn 1 0 0
vn 0 0 1
vn 0 0 -1
vn 0 -1 0
vn 0 1 0

# texcoords
vt 0.0136719 0.5
vt 0.134766 0.5
vt 0.138672 0.5
vt 0.142578 0.5

# verts
v -3 1 1
v -3 1 -0
v -3 2 1
v -3 2 -0
v -3 3 2
v -3 3 1
v -3 4 2
v -3 4 1
v -3 4 -1
v -3 4 -2
v -3 5 -1
v -3 5 -2
v -2 0 2
v -2 0 -2
v -2 1 1
v -2 1 -0
v -2 2 2
v -2 2 1
v -2 2 -0
v -2 2 -2
v -2 3 2
v -2 3 1
v -2 4 2
v -2 4 1
v -2 4 -1
v -2 4 -2
v -2 5 2
v -2 5 -1
v -2 5 -2
v -2 6 2
v -2 6 -2
v -1 1 3
v -1 1 2
v -1 2 3
v -1 2 2
v -1 3 3
v -1 3 2
v -1 4 3
v -1 4 2
v -1 4 -2
v -1 4 -3
v -1 5 -2
v -1 5 -3
v -1 6 1
v -1 6 -1
v -1 7 1
v -1 7 -1
v 0 1 -2
v 0 1 -3
v 0 2 -2
v 0 2 -3
v 0 4 3
v 0 4 2
v 0 5 3
v 0 5 2
v 0 1 3
v 0 1 2
v 0 2 3
v 0 2 2
v 0 3 3
v 0 3 2
v 0 4 3
v 0 4 2
v 0 4 -2
v 0 4 -3
v 0 5 -2
v 0 5 -3
v 1 1 -2
v 1 1 -3
v 1 2 -2
v 1 2 -3
v 1 4 3
v 1 4 2
v 1 5 3
v 1 5 2
v 1 6 1
v 1 6 -1
v 1 7 1
v 1 7 -1
v 2 0 2
v 2 0 -2
v 2 1 -0
v 2 1 -1
v 2 2 2
v 2 2 -0
v 2 2 -1
v 2 2 -2
v 2 3 1
v 2 3 -0
v 2 4 1
v 2 4 -0
v 2 4 -1
v 2 4 -2
v 2 5 2
v 2 5 -1
v 2 5 -2
v 2 6 2
v 2 6 -2
v 3 1 -0
v 3 1 -1
v 3 2 -0
v 3 2 -1
v 3 3 1
v 3 3 -0
v 3 4 1
v 3 4 -0
v 3 4 -1
v 3 4 -2
v 3 5 -1
v 3 5 -2
v -1 1 3
v -1 2 3
v -1 3 3
v -1 4 3
v 0 1 3
v 0 2 3
v 0 3 3
v 0 4 3
v 0 5 3
v 1 4 3
v 1 5 3
v -3 3 2
v -3 4 2
v -2 0 2
v -2 2 2
v -2 3 2
v -2 4 2
v -2 5 2
v -2 6 2
v -1 1 2
v -1 2 2
v -1 3 2
v -1 4 2
v 0 1 2
v 0 2 2
v 0 3 2
v 0 4 2
v 0 5 2
v 1 4 2
v 1 5 2
v 2 0 2
v 2 2 2
v 2 5 2
v 2 6 2
v -3 1 1
v -3 2 1
v -2 1 1
v -2 2 1
v -1 6 1
v -1 7 1
v 1 6 1
v 1 7 1
v 2 3 1
v 2 4 1
v 3 3 1
v 3 4 1
v 2 1 -0
v 2 2 -0
v 3 1 -0
v 3 2 -0
v -3 4 -1
v -3 5 -1
v -2 4 -1
v -2 5 -1
v 2 4 -1
v 2 5 -1
v 3 4 -1
v 3 5 -1
v -3 3 1
v -3 4 1
v -2 3 1
v -2 4 1
v -3 1 -0
v -3 2 -0
v -2 1 -0
v -2 2 -0
v 2 3 -0
v 2 4 -0
v 3 3 -0
v 3 4 -0
v -1 6 -1
v -1 7 -1
v 1 6 -1
v 1 7 -1
v 2 1 -1
v 2 2 -1
v 3 1 -1
v 3 2 -1
v -3 4 -2
v -3 5 -2
v -2 0 -2
v -2 2 -2
v -2 4 -2
v -2 5 -2
v -2 6 -2
v -1 4 -2
v -1 5 -2
v 0 1 -2
v 0 2 -2
v 0 4 -2
v 0 5 -2
v 1 1 -2
v 1 2 -2
v 2 0 -2
v 2 2 -2
v 2 4 -2
v 2 5 -2
v 2 6 -2
v 3 4 -2
v 3 5 -2
v -1 4 -3
v -1 5 -3
v 0 1 -3
v 0 2 -3
v 0 4 -3
v 0 5 -3
v 1 1 -3
v 1 2 -3
v -2 0 2
v 2 0 2
v -2 0 -2
v 2 0 -2
v -1 1 3
v 0 1 3
v -1 1 2
v 0 1 2
v -3 1 1
v -2 1 1
v -3 1 -0
v -2 1 -0
v 2 1 -0
v 3 1 -0
v 2 1 -1
v 3 1 -1
v 0 1 -2
v 1 1 -2
v 0 1 -3
v 1 1 -3
v -1 3 3
v 0 3 3
v -3 3 2
v -2 3 2
v -1 3 2
v 0 3 2
v -3 3 1
v -2 3 1
v 2 3 1
v 3 3 1
v 2 3 -0
v 3 3 -0
v 0 4 3
v 1 4 3
v 0 4 2
v 1 4 2
v -3 4 -1
v -2 4 -1
v 2 4 -1
v 3 4 -1
v -3 4 -2
v -2 4 -2
v -1 4 -2
v 0 4 -2
v 2 4 -2
v 3 4 -2
v -1 4 -3
v 0 4 -3
v -1 2 3
v 0 2 3
v -1 2 2
v 0 2 2
v -3 2 1
v -2 2 1
v -3 2 -0
v -2 2 -0
v 2 2 -0
v 3 2 -0
v 2 2 -1
v 3 2 -1
v 0 2 -2
v 1 2 -2
v 0 2 -3
v 1 2 -3
v -1 4 3
v 0 4 3
v -3 4 2
v -2 4 2
v -1 4 2
v 0 4 2
v -3 4 1
v -2 4 1
v 2 4 1
v 3 4 1
v 2 4 -0
v 3 4 -0
v 0 5 3
v 1 5 3
v 0 5 2
v 1 5 2
v -3 5 -1
v -2 5 -1
v 2 5 -1
v 3 5 -1
v -3 5 -2
v -2 5 -2
v -1 5 -2
v 0 5 -2
v 2 5 -2
v 3 5 -2
v -1 5 -3
v 0 5 -3
v -2 6 2
v 2 6 2
v -1 6 1
v 1 6 1
v -1 6 -1
v 1 6 -1
v -2 6 -2
v 2 6 -2
v -1 7 1
v 1 7 1
v -1 7 -1
v 1 7 -1

# faces
f 3/1/1 2/1/1 1/1/1
f 4/1/1 2/1/1 3/1/1
f 7/1/1 6/1/1 5/1/1
f 8/1/1 6/1/1 7/1/1
f 11/1/1 10/1/1 9/1/1
f 12/1/1 10/1/1 11/1/1
f 15/4/1 14/4/1 13/4/1
f 16/4/1 14/4/1 15/4/1
f 17/4/1 15/4/1 13/4/1
f 18/4/1 15/4/1 17/4/1
f 19/4/1 14/4/1 16/4/1
f 20/4/1 14/4/1 19/4/1
f 21/3/1 18/3/1 17/3/1
f 21/3/1 19/3/1 18/3/1
f 21/3/1 20/3/1 19/3/1
f 22/3/1 20/3/1 21/3/1
f 24/3/1 20/3/1 22/3/1
f 25/3/1 20/3/1 24/3/1
f 26/3/1 20/3/1 25/3/1
f 27/3/1 24/3/1 23/3/1
f 27/3/1 25/3/1 24/3/1
f 28/3/1 25/3/1 27/3/1
f 30/2/1 28/2/1 27/2/1
f 30/2/1 29/2/1 28/2/1
f 31/2/1 29/2/1 30/2/1
f 34/1/1 33/1/1 32/1/1
f 35/1/1 33/1/1 34/1/1
f 38/1/1 37/1/1 36/1/1
f 39/1/1 37/1/1 38/1/1
f 42/1/1 41/1/1 40/1/1
f 43/1/1 41/1/1 42/1/1
f 46/2/1 45/2/1 44/2/1
f 47/2/1 45/2/1 46/2/1
f 50/1/1 49/1/1 48/1/1
f 51/1/1 49/1/1 50/1/1
f 54/1/1 53/1/1 52/1/1
f 55/1/1 53/1/1 54/1/1
f 56/1/2 57/1/2 58/1/2
f 58/1/2 57/1/2 59/1/2
f 60/1/2 61/1/2 62/1/2
f 62/1/2 61/1/2 63/1/2
f 64/1/2 65/1/2 66/1/2
f 66/1/2 65/1/2 67/1/2
f 68/1/2 69/1/2 70/1/2
f 70/1/2 69/1/2 71/1/2
f 72/1/2 73/1/2 74/1/2
f 74/1/2 73/1/2 75/1/2
f 76/2/2 77/2/2 78/2/2
f 78/2/2 77/2/2 79/2/2
f 80/4/2 81/4/2 82/4/2
f 82/4/2 81/4/2 83/4/2
f 80/4/2 82/4/2 84/4/2
f 84/4/2 82/4/2 85/4/2
f 83/4/2 81/4/2 86/4/2
f 86/4/2 81/4/2 87/4/2
f 84/3/2 85/3/2 88/3/2
f 85/3/2 86/3/2 88/3/2
f 86/3/2 87/3/2 88/3/2
f 88/3/2 87/3/2 89/3/2
f 84/3/2 88/3/2 90/3/2
f 89/3/2 87/3/2 91/3/2
f 91/3/2 87/3/2 92/3/2
f 92/3/2 87/3/2 93/3/2
f 84/3/2 90/3/2 94/3/2
f 90/3/2 91/3/2 94/3/2
f 91/3/2 92/3/2 94/3/2
f 94/3/2 92/3/2 95/3/2
f 94/2/2 95/2/2 97/2/2
f 95/2/2 96/2/2 97/2/2
f 97/2/2 96/2/2 98/2/2
f 99/1/2 100/1/2 101/1/2
f 101/1/2 100/1/2 102/1/2
f 103/1/2 104/1/2 105/1/2
f 105/1/2 104/1/2 106/1/2
f 107/1/2 108/1/2 109/1/2
f 109/1/2 108/1/2 110/1/2
f 115/1/3 112/1/3 111/1/3
f 116/1/3 112/1/3 115/1/3
f 117/1/3 114/1/3 113/1/3
f 118/1/3 114/1/3 117/1/3
f 120/1/3 119/1/3 118/1/3
f 121/1/3 119/1/3 120/1/3
f 126/1/3 123/1/3 122/1/3
f 127/1/3 123/1/3 126/1/3
f 130/4/3 125/4/3 124/4/3
f 131/3/3 126/3/3 125/3/3
f 131/4/3 125/4/3 130/4/3
f 131/3/3 127/3/3 126/3/3
f 131/3/3 128/3/3 127/3/3
f 132/3/3 128/3/3 131/3/3
f 133/3/3 128/3/3 132/3/3
f 134/4/3 130/4/3 124/4/3
f 135/3/3 132/3/3 131/3/3
f 136/3/3 132/3/3 135/3/3
f 137/3/3 128/3/3 133/3/3
f 138/2/3 129/2/3 128/2/3
f 138/3/3 128/3/3 137/3/3
f 139/3/3 137/3/3 136/3/3
f 139/3/3 136/3/3 135/3/3
f 140/2/3 129/2/3 138/2/3
f 141/4/3 134/4/3 124/4/3
f 141/4/3 135/4/3 134/4/3
f 142/3/3 139/3/3 135/3/3
f 142/4/3 135/4/3 141/4/3
f 142/3/3 140/3/3 139/3/3
f 143/2/3 129/2/3 140/2/3
f 143/3/3 140/3/3 142/3/3
f 144/2/3 129/2/3 143/2/3
f 147/1/3 146/1/3 145/1/3
f 148/1/3 146/1/3 147/1/3
f 151/2/3 150/2/3 149/2/3
f 152/2/3 150/2/3 151/2/3
f 155/1/3 154/1/3 153/1/3
f 156/1/3 154/1/3 155/1/3
f 159/1/3 158/1/3 157/1/3
f 160/1/3 158/1/3 159/1/3
f 163/1/3 162/1/3 161/1/3
f 164/1/3 162/1/3 163/1/3
f 167/1/3 166/1/3 165/1/3
f 168/1/3 166/1/3 167/1/3
f 169/1/4 170/1/4 171/1/4
f 171/1/4 170/1/4 172/1/4
f 173/1/4 174/1/4 175/1/4
f 175/1/4 174/1/4 176/1/4
f 177/1/4 178/1/4 179/1/4
f 179/1/4 178/1/4 180/1/4
f 181/2/4 182/2/4 183/2/4
f 183/2/4 182/2/4 184/2/4
f 185/1/4 186/1/4 187/1/4
f 187/1/4 186/1/4 188/1/4
f 189/1/4 190/1/4 193/1/4
f 193/1/4 190/1/4 194/1/4
f 192/3/4 193/3/4 196/3/4
f 193/3/4 194/3/4 196/3/4
f 194/2/4 195/2/4 197/2/4
f 196/3/4 194/3/4 197/3/4
f 191/4/4 192/4/4 198/4/4
f 192/3/4 196/3/4 199/3/4
f 198/4/4 192/4/4 199/4/4
f 199/3/4 196/3/4 200/3/4
f 197/2/4 195/2/4 201/2/4
f 191/4/4 198/4/4 202/4/4
f 199/3/4 200/3/4 203/3/4
f 200/3/4 201/3/4 203/3/4
f 191/4/4 202/4/4 204/4/4
f 202/4/4 203/4/4 204/4/4
f 203/3/4 201/3/4 205/3/4
f 204/4/4 203/4/4 205/4/4
f 205/3/4 201/3/4 206/3/4
f 201/2/4 195/2/4 207/2/4
f 206/3/4 201/3/4 207/3/4
f 207/2/4 195/2/4 208/2/4
f 206/1/4 207/1/4 209/1/4
f 209/1/4 207/1/4 210/1/4
f 211/1/4 212/1/4 215/1/4
f 215/1/4 212/1/4 216/1/4
f 213/1/4 214/1/4 217/1/4
f 217/1/4 214/1/4 218/1/4
f 221/4/5 220/4/5 219/4/5
f 222/4/5 220/4/5 221/4/5
f 225/1/5 224/1/5 223/1/5
f 226/1/5 224/1/5 225/1/5
f 229/1/5 228/1/5 227/1/5
f 230/1/5 228/1/5 229/1/5
f 233/1/5 232/1/5 231/1/5
f 234/1/5 232/1/5 233/1/5
f 237/1/5 236/1/5 235/1/5
f 238/1/5 236/1/5 237/1/5
f 243/1/5 240/1/5 239/1/5
f 244/1/5 240/1/5 243/1/5
f 245/1/5 242/1/5 241/1/5
f 246/1/5 242/1/5 245/1/5
f 249/1/5 248/1/5 247/1/5
f 250/1/5 248/1/5 249/1/5
f 253/1/5 252/1/5 251/1/5
f 254/1/5 252/1/5 253/1/5
f 259/1/5 256/1/5 255/1/5
f 260/1/5 256/1/5 259/1/5
f 263/1/5 258/1/5 257/1/5
f 264/1/5 258/1/5 263/1/5
f 265/1/5 262/1/5 261/1/5
f 266/1/5 262/1/5 265/1/5
f 267/1/6 268/1/6 269/1/6
f 269/1/6 268/1/6 270/1/6
f 271/1/6 272/1/6 273/1/6
f 273/1/6 272/1/6 274/1/6
f 275/1/6 276/1/6 277/1/6
f 277/1/6 276/1/6 278/1/6
f 279/1/6 280/1/6 281/1/6
f 281/1/6 280/1/6 282/1/6
f 283/1/6 284/1/6 287/1/6
f 287/1/6 284/1/6 288/1/6
f 285/1/6 286/1/6 289/1/6
f 289/1/6 286/1/6 290/1/6
f 291/1/6 292/1/6 293/1/6
f 293/1/6 292/1/6 294/1/6
f 295/1/6 296/1/6 297/1/6
f 297/1/6 296/1/6 298/1/6
f 299/1/6 300/1/6 303/1/6
f 303/1/6 300/1/6 304/1/6
f 301/1/6 302/1/6 307/1/6
f 307/1/6 302/1/6 308/1/6
f 305/1/6 306/1/6 309/1/6
f 309/1/6 306/1/6 310/1/6
f 311/2/6 312/2/6 313/2/6
f 313/2/6 312/2/6 314/2/6
f 311/2/6 313/2/6 315/2/6
f 314/2/6 312/2/6 316/2/6
f 311/2/6 315/2/6 317/2/6
f 315/2/6 316/2/6 317/2/6
f 316/2/6 312/2/6 318/2/6
f 317/2/6 316/2/6 318/2/6
f 319/2/6 320/2/6 321/2/6
f 321/2/6 320/2/6 322/2/6
